# Blender v2.78 (sub 0) OBJ File: ''
# www.blender.org
mtllib cube.mtl
o Cube
v 8.000000 -8.000000 -8.000000
v 8.000000 -8.000000 8.000000
v -8.000000 -8.000000 8.000000
v -8.000000 -8.000000 -8.000000
v 8.000000 8.000000 -8.000000
v 8.000000 8.000000 8.000001
v -8.000000 8.000000 8.000000
v -8.000000 8.000000 -8.000000
vt 1.0000 0.5000
vt 0.7500 0.7500
vt 0.7500 0.5000
vt 0.2500 0.7500
vt 0.0000 1.0000
vt 0.0000 0.7500
vt 0.2500 0.2500
vt 0.0000 0.5000
vt 0.0000 0.2500
vt 0.5000 0.5000
vt 0.2500 0.7500
vt 0.2500 0.5000
vt 0.5000 0.2500
vt 0.7500 0.5000
vt 0.5000 0.5000
vt 0.5000 0.2500
vt 0.2500 0.5000
vt 1.0000 0.7500
vt 0.2500 1.0000
vt 0.2500 0.5000
vt 0.5000 0.7500
vt 0.7500 0.2500
vn 0.0000 -1.0000 0.0000
vn 0.0000 1.0000 0.0000
vn 1.0000 -0.0000 0.0000
vn -0.0000 -0.0000 1.0000
vn -1.0000 -0.0000 -0.0000
vn 0.0000 0.0000 -1.0000
usemtl Material
s off
f 2/1/1 4/2/1 1/3/1
f 8/4/2 6/5/2 5/6/2
f 5/7/3 2/8/3 1/9/3
f 6/10/4 3/11/4 2/12/4
f 3/13/5 8/14/5 4/15/5
f 1/16/6 8/17/6 5/7/6
f 2/1/1 3/18/1 4/2/1
f 8/4/2 7/19/2 6/5/2
f 5/7/3 6/20/3 2/8/3
f 6/10/4 7/21/4 3/11/4
f 3/13/5 7/22/5 8/14/5
f 1/16/6 4/15/6 8/17/6
